<svg width="45" height="46" viewBox="0 0 45 46" fill="none" xmlns="http://www.w3.org/2000/svg">
<path d="M0.128908 23.3737C0.128908 20.4274 0.709219 17.5099 1.83671 14.7879C2.9642 12.0659 4.61679 9.59266 6.70013 7.50933C8.78346 5.426 11.2567 3.77341 13.9787 2.64591C16.7007 1.51842 19.6182 0.93811 22.5645 0.93811V5.42522C19.0147 5.42514 15.5447 6.47763 12.5931 8.4496C9.64156 10.4216 7.34099 13.2245 5.98234 16.5039C5.08017 18.6819 4.61589 21.0162 4.61602 23.3737H0.128908ZM45 18.8865V7.66877C45 7.07375 44.7636 6.50309 44.3429 6.08234C43.9221 5.66159 43.3515 5.42522 42.7564 5.42522H31.5387C30.9436 5.42522 30.373 5.66159 29.9522 6.08234C29.5315 6.50309 29.2951 7.07375 29.2951 7.66877V16.643C29.2951 17.238 29.5315 17.8087 29.9522 18.2294C30.373 18.6502 30.9436 18.8865 31.5387 18.8865H36.0258C36.0258 23.6468 34.1348 28.212 30.7688 31.578C27.4028 34.944 22.8376 36.835 18.0773 36.835V32.3479C18.0773 31.7528 17.841 31.1822 17.4202 30.7614C16.9995 30.3407 16.4288 30.1043 15.8338 30.1043H6.85957C6.26454 30.1043 5.69389 30.3407 5.27314 30.7614C4.85239 31.1822 4.61602 31.7528 4.61602 32.3479V43.5656C4.61602 44.1607 4.85239 44.7313 5.27314 45.1521C5.69389 45.5728 6.26454 45.8092 6.85957 45.8092H18.0773C32.9454 45.8092 45 33.7546 45 18.8865Z" fill="white"/>
<path d="M10.1261 18.2222C9.44943 19.8553 9.10103 21.6057 9.10081 23.3734H13.1392C13.1392 20.8743 14.132 18.4776 15.8991 16.7104C17.6663 14.9433 20.063 13.9505 22.5621 13.9505V9.91211C19.8998 9.91225 17.2973 10.7018 15.0837 12.181C12.8702 13.6602 11.1449 15.7626 10.1261 18.2222Z" fill="white"/>
</svg>
